<svg width="32" height="32" viewBox="0 0 32 32" fill="none" xmlns="http://www.w3.org/2000/svg">
<rect x="0.5" y="0.5" width="31" height="31" rx="15.5" stroke="#59B17A" stroke-opacity="0.5"/>
<g clip-path="url(#clip0_0_1395)">
<path d="M19.3348 10.001C19.5099 9.82586 19.7178 9.68696 19.9466 9.5922C20.1753 9.49744 20.4205 9.44867 20.6682 9.44867C20.9158 9.44867 21.161 9.49744 21.3898 9.5922C21.6185 9.68696 21.8264 9.82586 22.0015 10.001C22.1766 10.176 22.3155 10.3839 22.4102 10.6127C22.505 10.8415 22.5538 11.0867 22.5538 11.3343C22.5538 11.5819 22.505 11.8271 22.4102 12.0559C22.3155 12.2847 22.1766 12.4925 22.0015 12.6676L13.0015 21.6676L9.33482 22.6676L10.3348 19.001L19.3348 10.001Z" stroke="#59B17A" stroke-width="1.3" stroke-linecap="round" stroke-linejoin="round"/>
</g>
<defs>
<clipPath id="clip0_0_1395">
<rect width="16" height="16" fill="white" transform="translate(8 8)"/>
</clipPath>
</defs>
</svg>
