<svg width="16" height="16" viewBox="0 0 16 16" fill="none" xmlns="http://www.w3.org/2000/svg">
<path d="M10.6668 11.3333V12.6667H1.3335V11.3333C1.3335 11.3333 1.3335 8.66666 6.00016 8.66666C10.6668 8.66666 10.6668 11.3333 10.6668 11.3333ZM8.3335 4.99999C8.3335 4.53851 8.19665 4.08738 7.94026 3.70366C7.68387 3.31995 7.31945 3.02088 6.89309 2.84428C6.46673 2.66767 5.99757 2.62146 5.54495 2.7115C5.09233 2.80153 4.67657 3.02376 4.35025 3.35008C4.02392 3.6764 3.8017 4.09216 3.71166 4.54478C3.62163 4.99741 3.66784 5.46656 3.84444 5.89292C4.02105 6.31928 4.32012 6.6837 4.70383 6.94009C5.08755 7.19648 5.53867 7.33333 6.00016 7.33333C6.619 7.33333 7.21249 7.0875 7.65008 6.64991C8.08766 6.21233 8.3335 5.61883 8.3335 4.99999ZM10.6268 8.66666C11.0367 8.98383 11.372 9.38695 11.6093 9.84767C11.8465 10.3084 11.98 10.8155 12.0002 11.3333V12.6667H14.6668V11.3333C14.6668 11.3333 14.6668 8.91333 10.6268 8.66666ZM10.0002 2.66666C9.54129 2.66411 9.09251 2.8013 8.7135 3.05999C9.11846 3.62582 9.3362 4.30419 9.3362 4.99999C9.3362 5.6958 9.11846 6.37417 8.7135 6.94C9.09251 7.19869 9.54129 7.33588 10.0002 7.33333C10.619 7.33333 11.2125 7.0875 11.6501 6.64991C12.0877 6.21233 12.3335 5.61883 12.3335 4.99999C12.3335 4.38116 12.0877 3.78766 11.6501 3.35008C11.2125 2.91249 10.619 2.66666 10.0002 2.66666Z" fill="#DCDDDF"/>
</svg>
