<svg aria-hidden="true" style="position: absolute; width: 0; height: 0; overflow: hidden;" version="1.1" xmlns="http://www.w3.org/2000/svg" xmlns:xlink="http://www.w3.org/1999/xlink">
<defs>
  <symbol id="burger" viewBox="0 0 32 26">
    <path d="M28.3379 13.207H4.33789"  stroke-width="2" stroke-linecap="round" stroke-linejoin="round"/>
    <path d="M28.3379 8.00684H4.33789"  stroke-width="2" stroke-linecap="round" stroke-linejoin="round"/>
    <path d="M28.3379 18.4072H4.33789"  stroke-width="2" stroke-linecap="round" stroke-linejoin="round"/>
  </symbol>
  <symbol id="lineSeparator" viewBox="0 0 100 2" preserveAspectRatio="none">
    <path d="M0 1H100"  stroke-width="1"/>
  </symbol>
  <symbol id="icon-facebook" viewBox="0 0 32 32">
<path d="M19.52 4.64c0.24 0 0.48 0 0.96 0v3.6c-0.24 0-0.72 0-1.2 0s-0.96 0-1.2 0.24c-0.24 0.24-0.24 0.48-0.24 1.040 0 0.48 0 0.8 0 1.28h2.64v3.040h-2.64v13.2h-4.080v-13.28h-2.16v-3.040h2.16v-1.040c0-1.76 0.24-3.040 0.72-3.6 0.72-1.040 2.16-1.52 4.32-1.52 0.24 0.080 0.48 0.080 0.72 0.080z"></path>
</symbol>
<symbol id="icon-instagram" viewBox="0 0 32 32">
<path d="M30.838 9.882c-0.018-1.253-0.25-2.497-0.695-3.669-0.778-2.002-2.362-3.585-4.367-4.36-1.159-0.435-2.385-0.669-3.626-0.695-1.595-0.071-2.101-0.091-6.151-0.091s-4.569 0-6.153 0.091c-1.239 0.026-2.465 0.26-3.624 0.695-2.005 0.775-3.591 2.358-4.367 4.36-0.436 1.157-0.672 2.381-0.695 3.618-0.071 1.595-0.093 2.1-0.093 6.143s0 4.56 0.093 6.143c0.025 1.239 0.259 2.461 0.695 3.621 0.778 2 2.362 3.583 4.369 4.358 1.154 0.45 2.38 0.705 3.624 0.745 1.597 0.071 2.103 0.093 6.153 0.093s4.569 0 6.153-0.093c1.239-0.025 2.465-0.258 3.626-0.694 2.005-0.777 3.589-2.359 4.367-4.36 0.436-1.159 0.67-2.381 0.695-3.621 0.071-1.593 0.093-2.098 0.093-6.143-0.003-4.043-0.003-4.557-0.096-6.141zM15.989 23.62c-4.236 0-7.667-3.426-7.667-7.655s3.431-7.655 7.667-7.655c4.233 0 7.667 3.426 7.667 7.655s-3.435 7.655-7.667 7.655zM23.962 9.812c-0.99 0-1.788-0.798-1.788-1.785s0.798-1.785 1.788-1.785c0.987 0 1.786 0.798 1.786 1.785s-0.799 1.785-1.786 1.785z"></path>
</symbol>
<symbol id="icon-youtube" viewBox="0 0 32 32">
<path d="M24.239 5.999c-1.36-0.080-4.16-0.16-8.4-0.16h-0.56c-4.080 0-6.8 0.080-8.16 0.24-1.84 0.16-3.12 0.64-3.84 1.28-0.64 0.56-1.12 1.6-1.28 2.96-0.080 0.88-0.16 2.72-0.16 5.52v0.4c0 2.64 0.080 4.48 0.24 5.36 0.24 1.28 0.64 2.24 1.44 2.8 0.8 0.64 2.16 1.040 4.080 1.2 1.36 0.080 4.16 0.16 8.4 0.16h0.56c4.080 0 6.8-0.080 8.16-0.24 1.84-0.16 3.12-0.64 3.84-1.28 0.64-0.56 1.12-1.6 1.28-2.96 0.080-0.88 0.16-2.72 0.16-5.52v-0.4c0-2.64-0.080-4.48-0.24-5.36-0.24-1.28-0.64-2.24-1.44-2.8-0.8-0.64-2.16-1.040-4.080-1.2zM21.119 15.839l-8.8 5.28v-10.56l8.8 5.28z"></path>
</symbol>

<symbol id="icon-map-pin" viewBox="0 0 32 32">
<path stroke-linejoin="round" stroke-linecap="round" stroke-miterlimit="4" stroke-width="2.6667" d="M28 13.333c0 9.333-12 17.333-12 17.333s-12-8-12-17.333c0-3.183 1.264-6.235 3.515-8.485s5.303-3.515 8.485-3.515c3.183 0 6.235 1.264 8.485 3.515s3.515 5.303 3.515 8.485z"></path>
<path stroke-linejoin="round" stroke-linecap="round" stroke-miterlimit="4" stroke-width="2.6667" d="M16 17.333c2.209 0 4-1.791 4-4s-1.791-4-4-4c-2.209 0-4 1.791-4 4s1.791 4 4 4z"></path>
</symbol>
<symbol id="icon-minus" viewBox="0 0 32 32">
<path stroke-linejoin="round" stroke-linecap="round" stroke-miterlimit="4" stroke-width="3.2" d="M6.665 16h18.667"></path>
</symbol>
<symbol id="icon-phone" viewBox="0 0 32 32">
<path stroke-linejoin="round" stroke-linecap="round" stroke-miterlimit="4" stroke-width="2.6667" d="M29.33 22.56v4c0.002 0.371-0.075 0.739-0.223 1.079s-0.367 0.646-0.641 0.897c-0.274 0.251-0.597 0.442-0.948 0.561s-0.725 0.163-1.094 0.13c-4.103-0.446-8.044-1.848-11.507-4.093-3.222-2.047-5.953-4.779-8-8-2.253-3.478-3.656-7.439-4.093-11.56-0.033-0.369 0.010-0.74 0.129-1.091s0.308-0.673 0.558-0.947c0.25-0.273 0.553-0.492 0.892-0.641s0.705-0.227 1.075-0.227h4c0.647-0.006 1.274 0.223 1.765 0.645s0.811 1.008 0.902 1.649c0.169 1.28 0.482 2.537 0.933 3.747 0.179 0.477 0.218 0.996 0.112 1.495s-0.353 0.956-0.712 1.319l-1.693 1.693c1.898 3.338 4.662 6.102 8 8l1.693-1.693c0.363-0.359 0.82-0.605 1.319-0.712s1.017-0.067 1.494 0.112c1.21 0.451 2.467 0.764 3.747 0.933 0.648 0.091 1.239 0.418 1.662 0.917s0.647 1.136 0.631 1.79z"></path>
</symbol>
<symbol id="icon-plus" viewBox="0 0 32 32">
<path stroke-linejoin="round" stroke-linecap="round" stroke-miterlimit="4" stroke-width="3.2" d="M16 6.667v18.667"></path>
<path stroke-linejoin="round" stroke-linecap="round" stroke-miterlimit="4" stroke-width="3.2" d="M6.665 16h18.667"></path>
</symbol>
<symbol id="icon-shopping-cart" viewBox="0 0 32 32">
<path stroke-linejoin="round" stroke-linecap="round" stroke-miterlimit="4" stroke-width="3" d="M12.005 29.333c0.736 0 1.333-0.597 1.333-1.333s-0.597-1.333-1.333-1.333c-0.736 0-1.333 0.597-1.333 1.333s0.597 1.333 1.333 1.333z"></path>
<path stroke-linejoin="round" stroke-linecap="round" stroke-miterlimit="4" stroke-width="3" d="M26.661 29.333c0.736 0 1.333-0.597 1.333-1.333s-0.597-1.333-1.333-1.333c-0.736 0-1.333 0.597-1.333 1.333s0.597 1.333 1.333 1.333z"></path>
<path stroke-linejoin="round" stroke-linecap="round" stroke-miterlimit="4" stroke-width="3" d="M1.328 1.334h5.333l3.573 17.853c0.122 0.614 0.456 1.165 0.943 1.558s1.098 0.601 1.723 0.589h12.96c0.626 0.012 1.236-0.197 1.723-0.589s0.821-0.944 0.943-1.558l2.133-11.187h-22.667"></path>
</symbol>
<symbol id="icon-star" viewBox="0 0 32 32">
<path stroke-linejoin="miter" stroke-linecap="butt" stroke-miterlimit="4" stroke-width="2.4" d="M12.4 10.394l3.6-6.822 3.6 6.822c0.318 0.603 0.899 1.025 1.571 1.141l7.601 1.315-5.376 5.532c-0.475 0.489-0.697 1.171-0.6 1.846l1.098 7.635-6.922-3.404c-0.612-0.301-1.329-0.301-1.941 0l-6.922 3.404 1.098-7.635c0.097-0.675-0.125-1.357-0.6-1.846l-5.376-5.532 7.601-1.315c0.672-0.116 1.252-0.538 1.571-1.141z"></path>
</symbol>
<symbol id="custom-icon" viewBox="0 0 20 21" fill="none">
    <path d="M10.8331 2.16699L3.41094 11.0735C3.12026 11.4223 2.97492 11.5967 2.9727 11.744C2.97077 11.8721 3.02783 11.9939 3.12744 12.0744C3.24201 12.167 3.46904 12.167 3.92308 12.167H9.99972L9.16639 18.8337L16.5885 9.92711C16.8792 9.57831 17.0245 9.4039 17.0267 9.25661C17.0287 9.12856 16.9716 9.00674 16.872 8.92625C16.7574 8.83366 16.5304 8.83366 16.0764 8.83366H9.99972L10.8331 2.16699Z" stroke="#59B17A" stroke-width="1.5" stroke-linecap="round" stroke-linejoin="round" />
  </symbol>





<symbol id="closeModal" viewBox="0 0 32 32">
  <path  stroke-linecap="round" stroke-linejoin="round" stroke-width="3" d="M24 8 8 24M8 8l16 16"/>
</symbol>

<symbol id="closeModalWhite" viewBox="0 0 32 32">
  <path stroke="#fff" stroke-linecap="round" stroke-linejoin="round" stroke-width="3" d="M24 8 8 24M8 8l16 16"/>
</symbol>

<symbol id="edit" viewBox="0 0 18 18">
  <g clip-path="url(#a)">
    <path stroke="#F6B83D" stroke-linecap="round" stroke-linejoin="round" stroke-width="1.5" d="M12.75 2.25c.197-.19699.4308-.35324.6882-.45985.2574-.1066.5332-.16147.8118-.16147.2786 0 .5544.05487.8118.16147.2574.10661.4912.26286.6882.45985.197.19698.3532.43083.4598.6882.1066.25737.1615.53322.1615.8118 0 .27857-.0549.55442-.1615.81179s-.2628.49122-.4598.68821L5.625 15.375 1.5 16.5l1.125-4.125L12.75 2.25Z"/>
  </g>
  <defs>
    <clipPath id="a">
      <path fill="#fff" d="M0 0h18v18H0z"/>
    </clipPath>
  </defs>
</symbol>

<symbol id="eye" viewBox="0 0 22 22">
  <g clip-path="url(#clip0_55848_2020)">
    <path d="M0.916016 11C0.916016 11 4.58268 3.66667 10.9993 3.66667C17.416 3.66667 21.0827 11 21.0827 11C21.0827 11 17.416 18.3333 10.9993 18.3333C4.58268 18.3333 0.916016 11 0.916016 11Z" stroke="#F6B83D" style="stroke:#F6B83D;stroke:color(display-p3 0.9647 0.7216 0.2392);stroke-opacity:1;" stroke-width="2" stroke-linecap="round" stroke-linejoin="round" />
    <path d="M11 13.75C12.5188 13.75 13.75 12.5188 13.75 11C13.75 9.48122 12.5188 8.25 11 8.25C9.48122 8.25 8.25 9.48122 8.25 11C8.25 12.5188 9.48122 13.75 11 13.75Z" stroke="#F6B83D" style="stroke:#F6B83D;stroke:color(display-p3 0.9647 0.7216 0.2392);stroke-opacity:1;" stroke-width="2" stroke-linecap="round" stroke-linejoin="round" />
  </g>
  <defs>
    <clipPath id="clip0_55848_2020">
      <rect width="22" height="22" fill="white" style="fill:white;fill-opacity:1;" />
    </clipPath>
  </defs>
</symbol>

<symbol id="eyeOff" viewBox="0 0 18 18">
  <g stroke="#F6B83D" stroke-linecap="round" stroke-linejoin="round" stroke-width="1.5" clip-path="url(#a)">
    <path d="M13.455 13.455C12.1729 14.4322 10.6118 14.9736 9 15 3.75 15 .75 8.99999.75 8.99999c.93292-1.73858 2.22685-3.25755 3.795-4.455m2.88-1.365c.51625-.12084 1.0448-.18125 1.575-.18 5.25 0 8.25 6 8.25 6-.4553.8517-.9982 1.65351-1.62 2.39251m-5.04-.8025c-.206.221-.4544.3984-.73038.5213-.276.123-.57394.1891-.87605.1945-.30211.0053-.6022-.0503-.88236-.1634-.28017-.1132-.53467-.2816-.74832-.4953-.21366-.2137-.38209-.4682-.49526-.74832-.11316-.28016-.16873-.58025-.1634-.88236.00533-.30211.07145-.60005.19443-.87605.12297-.27599.30028-.5244.52134-.73038M.75.75l16.5 16.5"/>
  </g>
  <defs>
    <clipPath id="a">
      <path fill="#fff" d="M0 0h18v18H0z"/>
    </clipPath>
  </defs>
</symbol>

<symbol id="plus" viewBox="0 0 18 18">
  <path stroke="#fff" stroke-linecap="round" stroke-linejoin="round" stroke-width="1.5" d="M9 3.75v10.5M3.75 9h10.5"/>
</symbol>

<symbol id="search" viewBox="0 0 18 18">
  <path stroke="#262626" stroke-linecap="round" stroke-linejoin="round" stroke-width="2" d="M8.25 14.25c3.3137 0 6-2.6863 6-6 0-3.31371-2.6863-6-6-6-3.31371 0-6 2.68629-6 6 0 3.3137 2.68629 6 6 6Zm7.5008 1.5-3.2625-3.2625"/>
</symbol>

<symbol id="star" viewBox="0 0 16 16">
  <g clip-path="url(#a)">
    <path fill="#FFC531" stroke="#FFC531" stroke-width="1.2" d="M6.20021 4.69703 8 1.28579l1.79979 3.41124c.15917.30167.44931.51244.78531.57059l3.8005.65757-2.6881 2.76584c-.2377.2446-.3486.58563-.3.92324l.549 3.81763-3.46113-1.7018c-.30608-.1506-.66466-.1505-.97074 0l-3.46115 1.7018.54902-3.81763c.04855-.33761-.06226-.67864-.29998-.92324L1.6144 5.92519l3.80046-.65757c.33609-.05815.62618-.26892.78535-.57059Zm8.31749 1.09225-.0002.00019.0002-.00019ZM3.8834 13.5155h.00013-.00013Z"/>
  </g>
  <defs>
    <clipPath id="a">
      <path fill="#fff" d="M0 0h16v16H0z"/>
    </clipPath>
  </defs>
</symbol>
  <symbol id="arrowLeft" viewBox="0 0 8 14" fill="none">
    <path d="M2.59986 7.71004C2.50613 7.61708 2.43174 7.50648 2.38097 7.38462C2.3302 7.26276 2.30406 7.13205 2.30406 7.00004C2.30406 6.86803 2.3302 6.73732 2.38097 6.61546C2.43174 6.49361 2.50613 6.383 2.59986 6.29004L7.18986 1.71003C7.28359 1.61707 7.35798 1.50647 7.40875 1.38461C7.45952 1.26275 7.48566 1.13204 7.48566 1.00003C7.48566 0.868019 7.45952 0.737313 7.40875 0.615454C7.35798 0.493594 7.28359 0.382993 7.18986 0.29003C7.0025 0.103779 6.74905 -0.000762939 6.48486 -0.000762939C6.22067 -0.000762939 5.96722 0.103779 5.77986 0.29003L1.18986 4.88004C0.628058 5.44254 0.3125 6.20504 0.3125 7.00004C0.3125 7.79505 0.628058 8.55754 1.18986 9.12005L5.77986 13.7101C5.96612 13.8948 6.21752 13.9989 6.47986 14.0001C6.61147 14.0008 6.74193 13.9756 6.86377 13.9258C6.9856 13.8761 7.09642 13.8027 7.18986 13.7101C7.28359 13.6171 7.35798 13.5065 7.40875 13.3846C7.45952 13.2628 7.48566 13.1321 7.48566 13.0001C7.48566 12.868 7.45952 12.7373 7.40875 12.6155C7.35798 12.4936 7.28359 12.383 7.18986 12.2901L2.59986 7.71004Z" 
          fill="#262626" fill-opacity="0.5"/>
  </symbol>

  <symbol id="arrowRight" viewBox="0 0 7 12" fill="none">
    <path d="M4.16711 6.59171C4.24522 6.51424 4.30721 6.42208 4.34952 6.32053C4.39183 6.21898 4.41361 6.11006 4.41361 6.00005C4.41361 5.89004 4.39183 5.78111 4.34952 5.67956C4.30721 5.57802 4.24522 5.48585 4.16711 5.40838L0.342108 1.59171C0.264001 1.51424 0.202005 1.42207 0.159698 1.32052C0.117391 1.21897 0.0956096 1.11005 0.0956096 1.00004C0.0956096 0.890031 0.117391 0.781109 0.159698 0.67956C0.202005 0.57801 0.264001 0.485843 0.342108 0.408373C0.498244 0.253164 0.709454 0.166046 0.929608 0.166046C1.14976 0.166046 1.36097 0.253164 1.51711 0.408373L5.34211 4.23338C5.81028 4.70213 6.07324 5.33754 6.07324 6.00005C6.07324 6.66255 5.81028 7.29796 5.34211 7.76671L1.51711 11.5917C1.36189 11.7457 1.15239 11.8325 0.933775 11.8334C0.824103 11.834 0.715384 11.813 0.613852 11.7715C0.512321 11.7301 0.419975 11.669 0.342108 11.5917C0.264001 11.5142 0.202005 11.4221 0.159698 11.3205C0.117391 11.219 0.0956096 11.1101 0.0956096 11.0001C0.0956096 10.89 0.117391 10.7811 0.159698 10.6796C0.202005 10.578 0.264001 10.4859 0.342108 10.4084L4.16711 6.59171Z" 
      fill="#262626" />
  </symbol>

<symbol id="trash" viewBox="0 0 16 16">
  <path stroke="#F6B83D" stroke-linecap="round" stroke-linejoin="round" stroke-width="1.2" d="M2 4h12m-1.3327.00001v9.33329c0 .3537-.1405.6928-.3905.9429-.2501.25-.5892.3905-.9428.3905H4.66732c-.35362 0-.69276-.1405-.94281-.3905-.25005-.2501-.39053-.5892-.39053-.9429V4.00001m2 0V2.66668c0-.35363.14048-.69276.39053-.94281s.58919-.39053.94281-.39053h2.66667c.35362 0 .69271.14048.94281.39053.25.25005.3905.58918.3905.94281v1.33333M6.66602 7.33334v3.99996m2.66796-3.99996v3.99996"/>
</symbol>

</defs>
</svg>